<svg width="247" height="52" viewBox="0 0 247 52" fill="none" xmlns="http://www.w3.org/2000/svg">
<g filter="url(#filter0_d_8405_59)">
<path d="M40.2758 19.2237C38.9287 20.481 38.2554 22.2298 38.4393 23.9943L38.4077 23.965C38.5966 26.0414 37.7892 28.0896 36.2008 29.5631C34.6124 31.0366 32.4045 31.7856 30.1661 31.6103L30.1977 31.6396C27.4875 31.4056 24.9101 32.7732 23.7535 35.0589C22.5969 37.3446 23.1095 40.0576 25.035 41.8423C26.9606 43.6269 29.8857 44.0999 32.3486 43.0249C34.8115 41.9499 36.2833 39.5578 36.0286 37.0438L36.062 37.0732C35.873 34.9967 36.6804 32.9485 38.2689 31.475C39.8573 30.0015 42.0651 29.2525 44.3035 29.4278L44.2702 29.3985C47.2488 29.647 50.0203 27.9622 50.9638 25.3296C51.9072 22.697 50.7746 19.8082 48.2285 18.3529C45.6824 16.8976 42.3917 17.2582 40.2811 19.2237H40.2758Z" fill="#5454D4"/>
<path d="M27.3235 27.7991L27.2902 27.7698C29.1935 27.9477 31.0823 27.3233 32.4355 26.069C33.7887 24.8146 34.4632 23.0629 34.2728 21.2971L34.3062 21.3265C34.1173 19.25 34.9247 17.2018 36.5131 15.7283C38.1015 14.2548 40.3094 13.5058 42.5478 13.6811L42.5144 13.6518C45.2248 13.8879 47.8038 12.5219 48.9622 10.2365C50.1205 7.95109 49.6095 5.23727 47.6845 3.45154C45.7595 1.66581 42.834 1.19174 40.3704 2.2663C37.9068 3.34087 36.4342 5.73325 36.6888 8.2476L36.6572 8.21665C36.8468 10.2933 36.0395 12.3418 34.451 13.8154C32.8624 15.289 30.6542 16.0379 28.4156 15.862L28.4472 15.8929C26.5439 15.715 24.655 16.3394 23.3018 17.5937C21.9486 18.8481 21.2742 20.5998 21.4645 22.3656L21.4329 22.3363C21.6212 24.4126 20.8136 26.4604 19.2253 27.9338C17.6371 29.4071 15.4296 30.1563 13.1913 29.9816L13.2229 30.0109C10.5125 29.7748 7.93356 31.1409 6.7752 33.4263C5.61683 35.7116 6.12787 38.4255 8.05286 40.2112C9.97785 41.9969 12.9033 42.471 15.3669 41.3964C17.8305 40.3219 19.3031 37.9295 19.0486 35.4151L19.0819 35.4445C18.893 33.368 19.7004 31.3198 21.2888 29.8463C22.8772 28.3728 25.0851 27.6238 27.3235 27.7991V27.7991Z" fill="#FF7143"/>
<path d="M15.5564 24.5302C16.9038 23.2731 17.5765 21.524 17.3912 19.7596L17.4245 19.7889C17.2354 17.7118 18.0433 15.6631 19.6325 14.1894C21.2218 12.7158 23.4306 11.9673 25.6696 12.1436L25.6363 12.1142C28.3457 12.3497 30.9235 10.9838 32.0811 8.69912C33.2388 6.41446 32.7278 3.70171 30.8035 1.91664C28.8792 0.131564 25.9549 -0.342472 23.4921 0.731439C21.0292 1.80535 19.5568 4.19658 19.8106 6.71005L19.779 6.68073C19.968 8.7572 19.1605 10.8053 17.5721 12.2788C15.9837 13.7524 13.7758 14.5014 11.5374 14.3261L11.569 14.3554C8.59056 14.1076 5.81954 15.7928 4.87666 18.4254C3.93379 21.058 5.06673 23.9465 7.61286 25.4014C10.159 26.8564 13.4495 26.4956 15.5599 24.5302H15.5564Z" fill="#5454D4"/>
<path d="M69.9448 8.28516H75.1595V31.8255H69.9448V8.28516Z" fill="#19191B"/>
<path fill-rule="evenodd" clip-rule="evenodd" d="M83.7739 15.8448C80.3327 17.1784 78.0976 20.3051 78.1126 23.7647C78.0945 26.0332 79.0605 28.2132 80.7932 29.8141C82.5259 31.415 84.8797 32.3024 87.325 32.2765C91.0545 32.2765 94.416 30.1906 95.8397 26.993C97.2635 23.7953 96.4685 20.1169 93.8261 17.6754C91.1837 15.234 87.2152 14.5113 83.7739 15.8448ZM87.251 20.1576C89.4452 20.12 91.2623 21.7296 91.323 23.7646C91.3822 24.7735 90.9839 25.7594 90.2245 26.4836C89.4651 27.2079 88.4138 27.6045 87.3251 27.5776C85.1305 27.5777 83.3457 25.9373 83.3254 23.9016C83.3051 21.8659 85.0568 20.1952 87.251 20.1576Z" fill="#19191B"/>
<path fill-rule="evenodd" clip-rule="evenodd" d="M117.321 31.0126V15.7024L112.245 15.6991V17.3441C111.007 15.9386 109.123 15.1609 107.169 15.2479C102.401 15.3874 98.614 19.0131 98.614 23.4381C98.614 27.8631 102.401 31.4888 107.169 31.6283C109.123 31.7153 111.007 30.9376 112.245 29.5321V31.0061C112.332 31.9786 111.938 32.9352 111.174 33.6062C110.41 34.2771 109.359 34.5897 108.317 34.4558C106.669 34.6118 105.089 33.8023 104.354 32.4247L99.9052 34.8108C101.646 37.4417 104.825 38.9502 108.143 38.7198C112.766 38.7198 117.321 36.4298 117.321 31.0126ZM109.769 19.7142C111.337 20.3705 112.318 21.8456 112.247 23.4405C112.279 24.4704 111.841 25.4649 111.039 26.1786C110.238 26.8922 109.149 27.2584 108.041 27.1866C106.321 27.1886 104.771 26.2197 104.128 24.7391C103.485 23.2586 103.876 21.5639 105.118 20.4582C106.359 19.3525 108.2 19.058 109.769 19.7142Z" fill="#19191B"/>
<path fill-rule="evenodd" clip-rule="evenodd" d="M125.935 15.8448C122.494 17.1784 120.259 20.3051 120.274 23.7647C120.256 26.0332 121.222 28.2132 122.954 29.8141C124.687 31.415 127.041 32.3024 129.486 32.2765C133.216 32.2765 136.577 30.1906 138.001 26.993C139.425 23.7953 138.63 20.1169 135.987 17.6754C133.345 15.234 129.377 14.5113 125.935 15.8448ZM129.412 20.1576C131.606 20.12 133.423 21.7296 133.484 23.7646C133.543 24.7735 133.145 25.7594 132.386 26.4836C131.626 27.2079 130.575 27.6045 129.486 27.5776C127.292 27.5777 125.507 25.9373 125.487 23.9016C125.466 21.8659 127.218 20.1952 129.412 20.1576Z" fill="#19191B"/>
<path fill-rule="evenodd" clip-rule="evenodd" d="M143.062 8.6999C141.893 9.14914 141.131 10.2075 141.131 11.3814C141.148 12.9777 142.539 14.2679 144.259 14.2838C145.525 14.2838 146.666 13.5767 147.15 12.4921C147.634 11.4075 147.367 10.1592 146.472 9.32907C145.577 8.49898 144.231 8.25066 143.062 8.6999ZM146.874 15.7024H141.657L141.65 31.827H146.874V15.7024Z" fill="#19191B"/>
<path fill-rule="evenodd" clip-rule="evenodd" d="M167.144 29.6232C168.703 28.0256 169.511 25.917 169.39 23.7647C169.512 21.6119 168.704 19.5027 167.145 17.9046C165.585 16.3064 163.403 15.3514 161.081 15.2512C159.125 15.1522 157.224 15.874 155.904 17.2171V15.7024H150.689V38.2752H155.904V30.309C157.223 31.6531 159.125 32.3756 161.081 32.2765C163.402 32.1758 165.584 31.2209 167.144 29.6232ZM159.971 20.0239C162.241 19.9887 164.118 21.6584 164.175 23.7646C164.254 24.8113 163.847 25.8394 163.058 26.5906C162.268 27.3418 161.17 27.7447 160.04 27.698C157.769 27.6983 155.922 25.9998 155.903 23.893C155.884 21.7862 157.7 20.0592 159.971 20.0239Z" fill="#19191B"/>
<path d="M185.481 26.988C185.481 30.6967 182.007 32.2765 178.253 32.2765C175.149 32.5373 172.188 31.017 170.778 28.4392L175.296 26.0531C175.673 27.2532 176.902 28.046 178.246 27.9555C179.496 27.9555 180.123 27.6004 180.123 26.957C180.123 25.1817 171.57 26.1182 171.57 20.5398C171.57 17.0233 174.769 15.2512 178.384 15.2512C181.152 15.17 183.749 16.4916 185.162 18.7009L180.713 20.9258C180.314 20.0623 179.397 19.5038 178.384 19.5071C177.48 19.5071 176.924 19.8329 176.924 20.4095C176.931 22.2483 185.481 21.0219 185.481 26.988Z" fill="#19191B"/>
<path d="M204.53 15.7024V31.827H199.315V30.3106C198.095 31.6679 196.247 32.3997 194.346 32.2782C190.835 32.2782 187.85 29.9572 187.85 25.6003V15.7024H193.064V24.8918C192.976 25.6691 193.261 26.443 193.844 27.0078C194.426 27.5726 195.247 27.871 196.088 27.8235C198 27.8235 199.32 26.7925 199.32 24.5025V15.7073L204.53 15.7024Z" fill="#19191B"/>
<path d="M234.43 21.9258V31.8254H229.216V22.3444C229.216 20.732 228.382 19.701 226.714 19.701C224.976 19.701 224.001 20.8297 224.001 22.7321V31.8254H218.788V22.3444C218.788 20.732 217.954 19.701 216.285 19.701C214.546 19.701 213.574 20.8297 213.574 22.7321V31.8254H208.359V15.7007H213.574V17.1829C214.672 15.8468 216.426 15.1188 218.232 15.2496C220.047 15.1672 221.775 15.9748 222.784 17.3767C223.959 15.9111 225.863 15.1079 227.825 15.2496C231.816 15.2512 234.43 17.8947 234.43 21.9258Z" fill="#19191B"/>
<path d="M238.841 15.6031C240.978 15.6031 242.711 13.9959 242.711 12.0133C242.711 10.0308 240.978 8.42358 238.841 8.42358C236.704 8.42358 234.971 10.0308 234.971 12.0133C234.971 13.9959 236.704 15.6031 238.841 15.6031Z" fill="#19191B"/>
</g>
<defs>
<filter id="filter0_d_8405_59" x="0.547241" y="0.162354" width="246.163" height="51.4327" filterUnits="userSpaceOnUse" color-interpolation-filters="sRGB">
<feFlood flood-opacity="0" result="BackgroundImageFix"/>
<feColorMatrix in="SourceAlpha" type="matrix" values="0 0 0 0 0 0 0 0 0 0 0 0 0 0 0 0 0 0 127 0" result="hardAlpha"/>
<feOffset dy="4"/>
<feGaussianBlur stdDeviation="2"/>
<feComposite in2="hardAlpha" operator="out"/>
<feColorMatrix type="matrix" values="0 0 0 0 0 0 0 0 0 0 0 0 0 0 0 0 0 0 0.25 0"/>
<feBlend mode="normal" in2="BackgroundImageFix" result="effect1_dropShadow_8405_59"/>
<feBlend mode="normal" in="SourceGraphic" in2="effect1_dropShadow_8405_59" result="shape"/>
</filter>
</defs>
</svg>
